<?xml version="1.0" encoding="iso-8859-1"?>
<!-- Generator: Adobe Illustrator 19.0.0, SVG Export Plug-In . SVG Version: 6.00 Build 0)  -->
<svg xmlns="http://www.w3.org/2000/svg" xmlns:xlink="http://www.w3.org/1999/xlink" version="1.1" id="Capa_1" x="0px" y="0px" viewBox="0 0 496.941 496.941" style="enable-background:new 0 0 496.941 496.941;" xml:space="preserve" width="512px" height="512px">
<g>
	<g>
		<g>
			<path d="M256.364,207.812l18.071-13.553l33.882,47.435l-4.518,3.012c-3.012,2.259-3.765,6.776-1.506,10.541l23.341,32.376     c1.506,1.506,3.012,3.012,5.271,3.012c0.753,0,0.753,0,1.506,0c1.506,0,3.012-0.753,4.518-1.506l85.082-64     c3.012-2.259,3.765-6.776,1.506-10.541l-24.094-32.376c-1.506-1.506-3.012-3.012-5.271-3.012c-2.259,0-3.765,0-6.023,1.506     l-3.765,3.012L288.74,49.694l4.518-3.012c3.012-2.259,3.765-6.776,1.506-10.541L271.423,3.012C269.917,1.506,268.411,0,266.152,0     c-2.259,0-3.765,0-6.023,1.506l-84.329,64c-3.012,2.259-3.765,6.776-1.506,10.541l23.341,32.376     c1.506,1.506,3.012,3.012,5.271,3.012c0.753,0,0.753,0,1.506,0c1.506,0,3.012-0.753,4.518-1.506l4.518-3.012l33.882,47.435     l-18.824,14.306c-2.259-0.753-4.518-0.753-6.776,0.753L23.705,305.694c-19.576,13.553-25.6,39.153-12.8,56.471     c12.8,17.318,38.4,19.576,56.471,4.518l185.976-152.094C255.611,213.082,256.364,210.071,256.364,207.812z M391.893,197.271     l14.306,20.329l-73.035,54.965l-14.306-20.329C318.858,252.235,327.14,246.212,391.893,197.271z M204.411,93.365l-14.306-20.329     l73.035-54.965L277.446,38.4l-4.518,3.012C246.576,60.988,260.129,51.2,204.411,93.365z M223.988,97.882     c45.176-33.882,34.635-25.6,52.706-39.153l96.376,134.023l-51.953,39.153C309.823,218.353,223.988,97.882,223.988,97.882z      M58.34,354.635c-12.047,9.788-27.859,9.035-35.388-0.753c-7.529-10.541-3.765-26.353,9.035-35.388l190.494-132.518     l15.059,21.835L58.34,354.635z M237.54,179.2l17.318-12.8c6.024,8.282,3.012,4.518,11.294,15.059l-17.318,12.8L237.54,179.2z" fill="#6bc72a"/>
			<path d="M485.258,406.588H462.67v-43.671c0-4.518-3.012-7.529-7.529-7.529H327.893c-4.518,0-7.529,3.012-7.529,7.529v43.671     h-22.588c-4.518,0-7.529,3.012-7.529,7.529v67.765H152.458v15.059c181.459,0,340.329,0,340.329,0v-82.824     C492.788,409.6,489.776,406.588,485.258,406.588z M335.423,370.447h112.188v36.141H335.423V370.447z M477.729,481.882H305.305     v-60.235c39.153,0,139.294,0,172.424,0V481.882z" fill="#6bc72a"/>
		</g>
	</g>
</g>
<g>
</g>
<g>
</g>
<g>
</g>
<g>
</g>
<g>
</g>
<g>
</g>
<g>
</g>
<g>
</g>
<g>
</g>
<g>
</g>
<g>
</g>
<g>
</g>
<g>
</g>
<g>
</g>
<g>
</g>
</svg>
