<svg xmlns="http://www.w3.org/2000/svg" width="512" height="512" viewBox="0 0 430 430"><g fill="#6bc72a"><path d="M430 206.192C419.029 187.42 353.899 87.096 215 87.096S10.972 187.42 0 206.192c41.864-40.7 111.726-86.135 215-86.135s173.136 45.435 215 86.135zM0 223.808c10.972 18.772 76.101 119.096 215 119.096s204.029-100.323 215-119.096c-41.864 40.7-111.726 86.135-215 86.135S41.864 264.508 0 223.808z"/><g><path d="M215 256.385a41.126 41.126 0 0 1-17.479-3.885h-48.244a75.69 75.69 0 0 0 11.262 15h108.924a75.704 75.704 0 0 0 11.261-15H232.48a41.133 41.133 0 0 1-17.48 3.885zM215 173.615a41.122 41.122 0 0 1 17.479 3.885h48.244a75.675 75.675 0 0 0-11.261-15H160.538a75.69 75.69 0 0 0-11.262 15h48.244a41.13 41.13 0 0 1 17.48-3.885zM174.309 222.5h-34.603a75.727 75.727 0 0 0 3.05 15h37.537a41.139 41.139 0 0 1-5.984-15zM249.707 237.5h37.537a75.942 75.942 0 0 0 3.05-15h-34.603a41.139 41.139 0 0 1-5.984 15zM255.691 207.5h34.603a75.841 75.841 0 0 0-3.05-15h-37.537a41.139 41.139 0 0 1 5.984 15zM180.293 192.5h-37.538a75.753 75.753 0 0 0-3.049 15h34.603a41.139 41.139 0 0 1 5.984-15zM180.798 147.5h68.404c-21.441-10.869-46.963-10.869-68.404 0zM249.202 282.5h-68.403c21.44 10.87 46.962 10.87 68.403 0z"/><circle cx="215" cy="215" r="31.385"/></g></g></svg>