<svg xmlns="http://www.w3.org/2000/svg" viewBox="0 0 512 512"><path d="M331.591 325.888a297.852 297.852 0 0 1-22.386 38.692c7.323 21.352 19.463 40.915 35.881 57.333 14.269 14.268 30.91 25.309 49.038 32.764a196.977 196.977 0 0 0 20.768-24.487c-45.378-14.487-79.131-55.243-83.301-104.302z" fill="#6bc72a"/><path d="M391.264 315.616V195.382c0-74.585-60.68-135.264-135.264-135.264s-135.264 60.68-135.264 135.264c0 33.149-26.969 60.117-60.117 60.117v30.059c49.723 0 90.176-40.453 90.176-90.176 0-58.01 47.195-105.205 105.206-105.205s105.206 47.195 105.206 105.205v120.235c0 42.71 29.846 78.579 69.777 87.849a194.165 194.165 0 0 0 11.466-28.398c-28.928-4.33-51.186-29.338-51.186-59.452zM323.831 443.168a181.415 181.415 0 0 1-26.309-33.312l-10.006-16.296-14.307 14.412c-34.521 34.521-75.991 59.586-121.263 73.941a194.82 194.82 0 0 0 37.22 18.309c33.822-14.252 65.251-34.193 93.072-59.364a212.212 212.212 0 0 0 20.339 23.564c11.136 11.136 23.303 20.867 36.285 29.109a195.483 195.483 0 0 0 29.94-17.469c-16.394-8.454-31.558-19.481-44.971-32.894z" fill="#6bc72a"/><path d="M256 0C148.267 0 60.618 87.648 60.618 195.382v30.059c16.574 0 30.059-13.484 30.059-30.059 0-91.159 74.164-165.323 165.323-165.323s165.323 74.164 165.323 165.323v120.235c0 15.85 12.334 28.865 27.908 29.974a196.048 196.048 0 0 0 2.151-28.972V195.382C451.382 87.648 363.733 0 256 0z" fill="#6bc72a"/><path d="M256 120.235c-41.436 0-75.147 33.711-75.147 75.147 0 66.297-53.937 120.235-120.235 120.235v1.002c0 9.863.741 19.556 2.159 29.031 39.366-.55 76.274-16.108 104.137-43.971 28.371-28.372 43.997-66.122 43.997-106.297 0-24.862 20.227-45.088 45.088-45.088s45.088 20.227 45.088 45.088c0 119.534-87.674 218.963-202.092 237.394a197.159 197.159 0 0 0 23.246 26.121c48.753-11.285 93.483-35.95 129.711-72.179 51.068-51.069 79.193-119.019 79.193-191.336.002-41.436-33.709-75.147-75.145-75.147zM281.321 485.678a228.749 228.749 0 0 1-2.72-2.764A358.213 358.213 0 0 1 235.7 510.95a196.763 196.763 0 0 0 20.3 1.051c16.681 0 32.878-2.106 48.344-6.058a244.216 244.216 0 0 1-23.023-20.265z" fill="#6bc72a"/><path d="M256 180.352c-8.3 0-15.029 6.729-15.029 15.029 0 96.403-76.031 175.381-171.277 180.125a194.07 194.07 0 0 0 11.968 29.255c48.289-4.755 93.049-25.839 127.773-60.563 39.72-39.721 61.594-92.572 61.594-148.817 0-8.3-6.729-15.029-15.029-15.029z" fill="#6bc72a"/></svg>