<svg xmlns="http://www.w3.org/2000/svg" viewBox="0 0 512 512"><path d="M384 85.333a42.321 42.321 0 0 0-21.333 5.739v-5.739c0-23.531-19.136-42.667-42.667-42.667a42.321 42.321 0 0 0-21.333 5.739v-5.739C298.667 19.136 279.531 0 256 0s-42.667 19.136-42.667 42.667v5.739A42.321 42.321 0 0 0 192 42.667c-23.531 0-42.667 19.136-42.667 42.667v117.355c-8.917-6.699-19.989-10.688-32-10.688-17.643 0-32 14.357-32 32v96.235c0 50.837 19.797 98.645 55.744 134.592l35.285 35.307c13.909 13.888 33.131 21.867 52.8 21.867h80.171c64.683 0 117.333-52.629 117.333-117.333V128c.001-23.531-19.135-42.667-42.666-42.667zm21.333 309.334c0 52.928-43.072 96-96 96h-80.171c-14.037 0-27.797-5.696-37.717-15.637l-35.285-35.285c-31.915-31.936-49.493-74.368-49.493-119.509V224c0-5.888 4.8-10.667 10.667-10.667 17.643 0 32 14.357 32 32v64c0 5.888 4.779 10.667 10.667 10.667s10.667-4.779 10.667-10.667v-224C170.667 73.579 180.224 64 192 64s21.333 9.579 21.333 21.333V224c0 5.888 4.779 10.667 10.667 10.667s10.667-4.779 10.667-10.667V42.667c0-11.755 9.557-21.333 21.333-21.333s21.333 9.579 21.333 21.333V224c0 5.888 4.779 10.667 10.667 10.667s10.667-4.779 10.667-10.667V85.333C298.667 73.579 308.224 64 320 64s21.333 9.579 21.333 21.333V224c0 5.888 4.779 10.667 10.667 10.667s10.667-4.779 10.667-10.667v-96c0-11.755 9.557-21.333 21.333-21.333s21.333 9.579 21.333 21.333v266.667z" fill="#6bc72a"/></svg>