<svg xmlns="http://www.w3.org/2000/svg" style="display:none"><symbol id="icon-auction" viewBox="0 0 496.941 496.941"><g><path d="M256.364 207.812l18.071-13.553 33.882 47.435-4.518 3.012c-3.012 2.259-3.765 6.776-1.506 10.541l23.341 32.376c1.506 1.506 3.012 3.012 5.271 3.012h1.506c1.506 0 3.012-.753 4.518-1.506l85.082-64c3.012-2.259 3.765-6.776 1.506-10.541l-24.094-32.376c-1.506-1.506-3.012-3.012-5.271-3.012s-3.765 0-6.023 1.506l-3.765 3.012L288.74 49.694l4.518-3.012c3.012-2.259 3.765-6.776 1.506-10.541L271.423 3.012C269.917 1.506 268.411 0 266.152 0s-3.765 0-6.023 1.506l-84.329 64c-3.012 2.259-3.765 6.776-1.506 10.541l23.341 32.376c1.506 1.506 3.012 3.012 5.271 3.012h1.506c1.506 0 3.012-.753 4.518-1.506l4.518-3.012 33.882 47.435-18.824 14.306c-2.259-.753-4.518-.753-6.776.753L23.705 305.694c-19.576 13.553-25.6 39.153-12.8 56.471 12.8 17.318 38.4 19.576 56.471 4.518l185.976-152.094c2.259-1.507 3.012-4.518 3.012-6.777zm135.529-10.541l14.306 20.329-73.035 54.965-14.306-20.329c0-.001 8.282-6.024 73.035-54.965zM204.411 93.365l-14.306-20.329 73.035-54.965L277.446 38.4l-4.518 3.012c-26.352 19.576-12.799 9.788-68.517 51.953zm19.577 4.517c45.176-33.882 34.635-25.6 52.706-39.153l96.376 134.023-51.953 39.153c-11.294-13.552-97.129-134.023-97.129-134.023zM58.34 354.635c-12.047 9.788-27.859 9.035-35.388-.753-7.529-10.541-3.765-26.353 9.035-35.388l190.494-132.518 15.059 21.835-179.2 146.824zM237.54 179.2l17.318-12.8c6.024 8.282 3.012 4.518 11.294 15.059l-17.318 12.8L237.54 179.2zM485.258 406.588H462.67v-43.671c0-4.518-3.012-7.529-7.529-7.529H327.893c-4.518 0-7.529 3.012-7.529 7.529v43.671h-22.588c-4.518 0-7.529 3.012-7.529 7.529v67.765H152.458v15.059h340.329v-82.824c.001-4.517-3.011-7.529-7.529-7.529zm-149.835-36.141h112.188v36.141H335.423v-36.141zm142.306 111.435H305.305v-60.235h172.424v60.235z"/></g></symbol><symbol id="icon-close" viewBox="0 0 47.971 47.971"><path d="M28.228 23.986L47.092 5.122a2.998 2.998 0 0 0 0-4.242 2.998 2.998 0 0 0-4.242 0L23.986 19.744 5.121.88a2.998 2.998 0 0 0-4.242 0 2.998 2.998 0 0 0 0 4.242l18.865 18.864L.879 42.85a2.998 2.998 0 1 0 4.242 4.241l18.865-18.864L42.85 47.091c.586.586 1.354.879 2.121.879s1.535-.293 2.121-.879a2.998 2.998 0 0 0 0-4.242L28.228 23.986z"/></symbol><symbol id="icon-eye" viewBox="0 0 430 430"><g><path d="M430 206.192C419.029 187.42 353.899 87.096 215 87.096S10.972 187.42 0 206.192c41.864-40.7 111.726-86.135 215-86.135s173.136 45.435 215 86.135zM0 223.808c10.972 18.772 76.101 119.096 215 119.096s204.029-100.323 215-119.096c-41.864 40.7-111.726 86.135-215 86.135S41.864 264.508 0 223.808z"/><path d="M215 256.385a41.126 41.126 0 0 1-17.479-3.885h-48.244a75.69 75.69 0 0 0 11.262 15h108.924a75.704 75.704 0 0 0 11.261-15H232.48a41.133 41.133 0 0 1-17.48 3.885zm0-82.77a41.122 41.122 0 0 1 17.479 3.885h48.244a75.675 75.675 0 0 0-11.261-15H160.538a75.69 75.69 0 0 0-11.262 15h48.244a41.13 41.13 0 0 1 17.48-3.885zM174.309 222.5h-34.603a75.727 75.727 0 0 0 3.05 15h37.537a41.139 41.139 0 0 1-5.984-15zm75.398 15h37.537a75.942 75.942 0 0 0 3.05-15h-34.603a41.139 41.139 0 0 1-5.984 15zm5.984-30h34.603a75.841 75.841 0 0 0-3.05-15h-37.537a41.139 41.139 0 0 1 5.984 15zm-75.398-15h-37.538a75.753 75.753 0 0 0-3.049 15h34.603a41.139 41.139 0 0 1 5.984-15zm.505-45h68.404c-21.441-10.869-46.963-10.869-68.404 0zm68.404 135h-68.403c21.44 10.87 46.962 10.87 68.403 0z"/><circle cx="215" cy="215" r="31.385"/></g></symbol><symbol id="icon-face" viewBox="0 0 424.239 424.239"><g><circle cx="129.287" cy="261.896" r="14.974"/><circle cx="294.952" cy="261.896" r="14.974"/><path d="M129.287 213.875c-8.179 0-15.869 3.185-21.653 8.969a7.999 7.999 0 0 0 0 11.314 7.999 7.999 0 0 0 11.313 0 14.527 14.527 0 0 1 10.34-4.283c3.906 0 7.578 1.521 10.34 4.283a7.97 7.97 0 0 0 5.657 2.343 7.999 7.999 0 0 0 5.657-13.657c-5.785-5.783-13.475-8.969-21.654-8.969zm144.011 8.969a7.999 7.999 0 0 0 0 11.314 7.999 7.999 0 0 0 11.313 0c5.701-5.702 14.979-5.701 20.68 0 1.562 1.562 3.609 2.343 5.657 2.343s4.095-.781 5.657-2.343a7.999 7.999 0 0 0 0-11.314c-11.938-11.938-31.366-11.939-43.307 0zm-45.771 102.631a21.65 21.65 0 0 1-15.408 6.382 21.643 21.643 0 0 1-15.407-6.382 8 8 0 0 0-11.313 0 7.999 7.999 0 0 0 0 11.314c7.137 7.138 16.627 11.068 26.721 11.068 10.094 0 19.584-3.931 26.721-11.068a8 8 0 0 0-11.314-11.314z"/><path d="M400.881 254.178c0-21.731-15.71-39.851-36.366-43.63V76.715a51.555 51.555 0 0 0-23.104-43.057 51.542 51.542 0 0 0-45.711-5.686l-50.226-17.048C206.88-2.177 166.255-3.521 127.992 7.036 77.9 20.857 49.182 50.083 44.749 91.627a60.731 60.731 0 0 0-9.158 17.255l-3.896 11.531c-2.091 6.191.214 12.697 5.738 16.189 5.522 3.492 12.389 2.786 17.086-1.759a27.915 27.915 0 0 1 5.204-3.955v79.661c-20.656 3.779-36.366 21.898-36.366 43.63 0 22.601 16.991 41.296 38.868 44.014 5.494 30.336 19.931 58.319 42.006 80.712 28.821 29.236 67.135 45.336 107.888 45.336h.015c40.701-.004 78.965-15.856 107.745-44.635 22.481-22.481 37.073-50.749 42.386-81.445 21.755-2.832 38.616-21.47 38.616-43.983zM332.565 46.991c10.137 6.725 15.95 17.559 15.95 29.724v104.689c-24.831-3.859-43.897-25.383-43.897-51.279l-.662-87.96c9.769-2.575 19.956-.915 28.609 4.826zm-283.37 71.613l1.555-4.601a44.864 44.864 0 0 1 24.815-26.85 44.862 44.862 0 0 1 36.556.573c24.226 11.283 53.513 5.183 71.219-14.833l1.982-2.241a8.001 8.001 0 0 0-11.984-10.601l-1.982 2.241c-13.048 14.75-34.629 19.244-52.48 10.93a60.88 60.88 0 0 0-49.609-.777 60.976 60.976 0 0 0-4.233 2.033c9.299-24.791 31.805-42.249 67.215-52.019 35.161-9.702 72.535-8.451 108.084 3.615l47.623 16.165.624 41.337c-21.205 28.831-52.131 48.348-87.373 55.059-36.086 6.871-72.901-.4-103.663-20.474-15.032-9.807-33.982-9.388-48.349.443zm-9.838 135.574c0-12.863 8.609-23.747 20.366-27.21v43.362c0 3.746.135 7.471.398 11.172-11.959-3.333-20.764-14.316-20.764-27.324zM308.566 368.29c-25.758 25.758-60.005 39.945-96.433 39.949h-.014c-36.433 0-70.705-14.409-96.494-40.568-25.731-26.102-39.902-60.672-39.902-97.342V127.116a27.647 27.647 0 0 1 13.075 4.445c34.246 22.347 75.228 30.442 115.4 22.792 32.609-6.21 61.903-22.263 84.419-45.938v21.709c0 34.731 26.217 63.437 59.897 67.41v74.308c.001 36.434-14.186 70.687-39.948 96.448zm55.64-86.814c.198-3.194.309-6.405.309-9.633v-44.875c11.757 3.463 20.366 14.347 20.366 27.21 0 12.975-8.76 23.936-20.675 27.298z"/></g></symbol><symbol id="icon-facebook" viewBox="0 0 430.113 430.114"><path d="M158.081 83.3v59.218h-43.385v72.412h43.385v215.183h89.122V214.936h59.805s5.601-34.721 8.316-72.685H247.54V92.74c0-7.4 9.717-17.354 19.321-17.354h48.557V.001h-66.021C155.878-.004 158.081 72.48 158.081 83.3z"/></symbol><symbol id="icon-fingerprint" viewBox="0 0 512 512"><path d="M331.591 325.888a297.852 297.852 0 0 1-22.386 38.692c7.323 21.352 19.463 40.915 35.881 57.333 14.269 14.268 30.91 25.309 49.038 32.764a196.977 196.977 0 0 0 20.768-24.487c-45.378-14.487-79.131-55.243-83.301-104.302z"/><path d="M391.264 315.616V195.382c0-74.585-60.68-135.264-135.264-135.264s-135.264 60.68-135.264 135.264c0 33.149-26.969 60.117-60.117 60.117v30.059c49.723 0 90.176-40.453 90.176-90.176 0-58.01 47.195-105.205 105.206-105.205s105.206 47.195 105.206 105.205v120.235c0 42.71 29.846 78.579 69.777 87.849a194.165 194.165 0 0 0 11.466-28.398c-28.928-4.33-51.186-29.338-51.186-59.452zm-67.433 127.552a181.415 181.415 0 0 1-26.309-33.312l-10.006-16.296-14.307 14.412c-34.521 34.521-75.991 59.586-121.263 73.941a194.82 194.82 0 0 0 37.22 18.309c33.822-14.252 65.251-34.193 93.072-59.364a212.212 212.212 0 0 0 20.339 23.564c11.136 11.136 23.303 20.867 36.285 29.109a195.483 195.483 0 0 0 29.94-17.469c-16.394-8.454-31.558-19.481-44.971-32.894z"/><path d="M256 0C148.267 0 60.618 87.648 60.618 195.382v30.059c16.574 0 30.059-13.484 30.059-30.059 0-91.159 74.164-165.323 165.323-165.323s165.323 74.164 165.323 165.323v120.235c0 15.85 12.334 28.865 27.908 29.974a196.048 196.048 0 0 0 2.151-28.972V195.382C451.382 87.648 363.733 0 256 0z"/><path d="M256 120.235c-41.436 0-75.147 33.711-75.147 75.147 0 66.297-53.937 120.235-120.235 120.235v1.002c0 9.863.741 19.556 2.159 29.031 39.366-.55 76.274-16.108 104.137-43.971 28.371-28.372 43.997-66.122 43.997-106.297 0-24.862 20.227-45.088 45.088-45.088s45.088 20.227 45.088 45.088c0 119.534-87.674 218.963-202.092 237.394a197.159 197.159 0 0 0 23.246 26.121c48.753-11.285 93.483-35.95 129.711-72.179 51.068-51.069 79.193-119.019 79.193-191.336.002-41.436-33.709-75.147-75.145-75.147zm25.321 365.443a228.749 228.749 0 0 1-2.72-2.764A358.213 358.213 0 0 1 235.7 510.95a196.763 196.763 0 0 0 20.3 1.051c16.681 0 32.878-2.106 48.344-6.058a244.216 244.216 0 0 1-23.023-20.265z"/><path d="M256 180.352c-8.3 0-15.029 6.729-15.029 15.029 0 96.403-76.031 175.381-171.277 180.125a194.07 194.07 0 0 0 11.968 29.255c48.289-4.755 93.049-25.839 127.773-60.563 39.72-39.721 61.594-92.572 61.594-148.817 0-8.3-6.729-15.029-15.029-15.029z"/></symbol><symbol id="icon-google-plus" viewBox="0 0 491.858 491.858"><g><path d="M377.472 224.957H201.319v58.718H308.79c-16.032 51.048-63.714 88.077-120.055 88.077-69.492 0-125.823-56.335-125.823-125.824 0-69.492 56.333-125.823 125.823-125.823 34.994 0 66.645 14.289 89.452 37.346l42.622-46.328c-34.04-33.355-80.65-53.929-132.074-53.929C84.5 57.193 0 141.693 0 245.928s84.5 188.737 188.736 188.737c91.307 0 171.248-64.844 188.737-150.989v-58.718l-.001-.001zM491.858 224.857h-36.031v-36.031h-30.886v36.031H388.91v30.883h36.031v36.032h30.886V255.74h36.031z"/></g></symbol><symbol id="icon-hand" viewBox="0 0 512 512"><path d="M384 85.333a42.321 42.321 0 0 0-21.333 5.739v-5.739c0-23.531-19.136-42.667-42.667-42.667a42.321 42.321 0 0 0-21.333 5.739v-5.739C298.667 19.136 279.531 0 256 0s-42.667 19.136-42.667 42.667v5.739A42.321 42.321 0 0 0 192 42.667c-23.531 0-42.667 19.136-42.667 42.667v117.355c-8.917-6.699-19.989-10.688-32-10.688-17.643 0-32 14.357-32 32v96.235c0 50.837 19.797 98.645 55.744 134.592l35.285 35.307c13.909 13.888 33.131 21.867 52.8 21.867h80.171c64.683 0 117.333-52.629 117.333-117.333V128c.001-23.531-19.135-42.667-42.666-42.667zm21.333 309.334c0 52.928-43.072 96-96 96h-80.171c-14.037 0-27.797-5.696-37.717-15.637l-35.285-35.285c-31.915-31.936-49.493-74.368-49.493-119.509V224c0-5.888 4.8-10.667 10.667-10.667 17.643 0 32 14.357 32 32v64c0 5.888 4.779 10.667 10.667 10.667s10.667-4.779 10.667-10.667v-224C170.667 73.579 180.224 64 192 64s21.333 9.579 21.333 21.333V224c0 5.888 4.779 10.667 10.667 10.667s10.667-4.779 10.667-10.667V42.667c0-11.755 9.557-21.333 21.333-21.333s21.333 9.579 21.333 21.333V224c0 5.888 4.779 10.667 10.667 10.667s10.667-4.779 10.667-10.667V85.333C298.667 73.579 308.224 64 320 64s21.333 9.579 21.333 21.333V224c0 5.888 4.779 10.667 10.667 10.667s10.667-4.779 10.667-10.667v-96c0-11.755 9.557-21.333 21.333-21.333s21.333 9.579 21.333 21.333v266.667z"/></symbol><symbol id="icon-ic" viewBox="0 0 22.092 22.092"><g><path d="M7.83 3.543a3.281 3.281 0 0 1-6.56 0 3.28 3.28 0 0 1 6.56 0z"/><circle cx="18.812" cy="3.314" r="3.28" transform="matrix(.86113 0 0 .86113 -2.322 1.675)"/><circle cx="11.003" cy="11.084" r="3.28" transform="matrix(1.6365 0 0 1.6365 -9.319 -6.03)"/><circle cx="11.003" cy="18.778" r="3.28" transform="translate(-4.674 5.47) scale(.71068)"/><circle cx="18.812" cy="3.314" r="3.28" transform="matrix(.86113 0 0 .86113 1.11 11.722)"/></g></symbol><symbol id="icon-linkedin" viewBox="0 0 430.117 430.117"><path d="M430.117 261.543V420.56h-92.188V272.193c0-37.271-13.334-62.707-46.703-62.707-25.473 0-40.632 17.142-47.301 33.724-2.432 5.928-3.058 14.179-3.058 22.477V420.56h-92.219s1.242-251.285 0-277.32h92.21v39.309c-.187.294-.43.611-.606.896h.606v-.896c12.251-18.869 34.13-45.824 83.102-45.824 60.673-.001 106.157 39.636 106.157 124.818zM52.183 9.558C20.635 9.558 0 30.251 0 57.463c0 26.619 20.038 47.94 50.959 47.94h.616c32.159 0 52.159-21.317 52.159-47.94-.606-27.212-20-47.905-51.551-47.905zM5.477 420.56h92.184V143.24H5.477v277.32z"/></symbol><symbol id="icon-mail" viewBox="0 0 524.184 524.184"><path d="M483.606 75.31H40.542C18.34 75.31 0 93.65 0 115.852v292.48c0 22.201 18.34 40.542 40.542 40.542h443.064c22.201 0 40.542-18.34 40.542-40.542v-292.48c.965-22.202-17.376-40.542-40.542-40.542zM332.057 273.193L500.981 142.88v261.591L332.057 273.193zM41.507 99.442h442.098c7.722 0 14.479 5.792 16.41 12.549L276.07 285.741c-8.688 6.757-23.167 6.757-30.889 0L24.132 113.921c1.931-7.722 8.688-14.479 17.375-14.479zM24.132 404.471V144.81l166.994 129.348L24.132 404.471zm17.375 22.201c-1.931 0-3.861 0-4.826-.965l174.716-136.105 19.306 15.444c8.688 6.757 19.306 9.653 29.924 9.653 10.618 0 22.201-2.896 29.924-9.653l21.236-16.41 176.646 137.07c-1.931.965-2.896.965-4.826.965h-442.1z"/></symbol><symbol id="icon-menu" viewBox="0 0 53 53"><path d="M2 13.5h49a2 2 0 0 0 0-4H2a2 2 0 0 0 0 4zM2 28.5h49a2 2 0 0 0 0-4H2a2 2 0 0 0 0 4zM2 43.5h49a2 2 0 0 0 0-4H2a2 2 0 0 0 0 4z"/></symbol><symbol id="icon-microphone" viewBox="0 0 250.189 250.189"><g><path d="M214.408 119.658c0-4.143-3.358-7.5-7.5-7.5s-7.5 3.357-7.5 7.5c0 40.976-33.337 74.313-74.313 74.313s-74.313-33.338-74.313-74.313c0-4.143-3.358-7.5-7.5-7.5s-7.5 3.357-7.5 7.5c0 46.722 36.062 85.173 81.813 88.995v26.536H84.188a7.5 7.5 0 0 0-7.5 7.5 7.5 7.5 0 0 0 7.5 7.5h81.813a7.5 7.5 0 0 0 7.5-7.5 7.5 7.5 0 0 0-7.5-7.5h-33.407v-26.536c45.751-3.822 81.814-42.273 81.814-88.995z"/><path d="M125.094 168.064c26.692 0 48.407-21.715 48.407-48.406V48.406C173.501 21.715 151.786 0 125.094 0 98.403 0 76.688 21.715 76.688 48.406v71.252c0 26.692 21.715 48.406 48.406 48.406zM91.688 48.406c0-18.42 14.986-33.406 33.406-33.406 18.421 0 33.407 14.986 33.407 33.406v71.252c0 18.42-14.986 33.406-33.407 33.406-18.42 0-33.406-14.986-33.406-33.406V48.406z"/></g></symbol><symbol id="icon-music-player" viewBox="0 0 54 54"><g><path d="M41.824 0H12.176C5.462 0 0 5.462 0 12.176v29.648C0 48.538 5.462 54 12.176 54h29.648C48.538 54 54 48.538 54 41.824V12.176C54 5.462 48.538 0 41.824 0zM52 41.824C52 47.436 47.435 52 41.824 52H12.176C6.565 52 2 47.436 2 41.824V12.176C2 6.564 6.565 2 12.176 2h29.648C47.435 2 52 6.564 52 12.176v29.648z"/><path d="M42.871 8.866l-22 2.856a1 1 0 0 0-.871.992V36.737c-1.371-1.328-3.326-2.165-5.5-2.165-4.136 0-7.5 3.013-7.5 6.715S10.364 48 14.5 48s7.5-3.012 7.5-6.714V20.878l20-2.598v12.009c-1.357-1.317-3.285-2.146-5.429-2.146-4.096 0-7.428 3.013-7.428 6.715s3.333 6.714 7.428 6.714c4.096 0 7.429-3.012 7.429-6.714V9.857a.998.998 0 0 0-1.129-.991zM14.5 46C11.467 46 9 43.886 9 41.286s2.467-4.715 5.5-4.715 5.5 2.115 5.5 4.715S17.533 46 14.5 46zM22 18.861v-5.268l20-2.597V16.263l-20 2.598zm14.571 20.71c-2.993 0-5.428-2.114-5.428-4.714s2.435-4.715 5.428-4.715S42 32.258 42 34.857s-2.436 4.714-5.429 4.714z"/></g></symbol><symbol id="icon-place-localizer" viewBox="0 0 490 490"><g><path d="M245.001 0C156.458 0 84.424 71.987 84.424 160.472c0 85.04 145.93 315.146 152.142 324.9a10.002 10.002 0 0 0 16.869 0c6.212-9.754 152.141-239.861 152.141-324.9C405.576 71.987 333.542 0 245.001 0zm0 461.127c-13.207-21.363-40.009-65.587-66.549-114.588-48.429-89.418-74.027-153.758-74.027-186.067C104.424 83.015 167.487 20 245.001 20s140.575 63.015 140.575 140.472c0 32.309-25.599 96.649-74.027 186.067-26.54 49-53.342 93.225-66.548 114.588z"/><path d="M244.999 76.071c-41.884 0-75.959 33.149-75.959 73.894 0 40.744 34.075 73.891 75.959 73.891s75.959-33.147 75.959-73.891c0-40.745-34.075-73.894-75.959-73.894zm0 127.784c-30.855 0-55.959-24.175-55.959-53.891 0-29.717 25.104-53.894 55.959-53.894s55.959 24.177 55.959 53.894c0 29.716-25.103 53.891-55.959 53.891z"/></g></symbol><symbol id="icon-search" viewBox="0 0 446.25 446.25"><path d="M318.75 280.5h-20.4l-7.649-7.65c25.5-28.05 40.8-66.3 40.8-107.1C331.5 73.95 257.55 0 165.75 0S0 73.95 0 165.75 73.95 331.5 165.75 331.5c40.8 0 79.05-15.3 107.1-40.8l7.65 7.649v20.4L408 446.25 446.25 408l-127.5-127.5zm-153 0C102 280.5 51 229.5 51 165.75S102 51 165.75 51 280.5 102 280.5 165.75s-51 114.75-114.75 114.75z"/></symbol><symbol id="icon-shield" viewBox="0 0 428.16 428.16"><path d="M393.8 110.208c-.512-11.264-.512-22.016-.512-32.768 0-8.704-6.656-15.36-15.36-15.36-64 0-112.64-18.432-153.088-57.856-6.144-5.632-15.36-5.632-21.504 0C162.888 43.648 114.248 62.08 50.248 62.08c-8.704 0-15.36 6.656-15.36 15.36 0 10.752 0 21.504-.512 32.768-2.048 107.52-5.12 254.976 174.592 316.928l5.12 1.024 5.12-1.024c179.2-61.952 176.64-208.896 174.592-316.928zM201.8 259.2c-3.072 2.56-6.656 4.096-10.752 4.096h-.512c-4.096 0-8.192-2.048-10.752-5.12l-47.616-52.736 23.04-20.48 37.376 41.472 82.944-78.848 20.992 22.528L201.8 259.2z"/></symbol><symbol id="icon-shopping-cart" viewBox="0 0 511.999 511.999"><path d="M214.685 402.828c-24.829 0-45.029 20.2-45.029 45.029 0 24.829 20.2 45.029 45.029 45.029s45.029-20.2 45.029-45.029c-.001-24.829-20.201-45.029-45.029-45.029zm0 64.914c-10.966 0-19.887-8.922-19.887-19.887 0-10.966 8.922-19.887 19.887-19.887s19.887 8.922 19.887 19.887c0 10.967-8.922 19.887-19.887 19.887zM372.63 402.828c-24.829 0-45.029 20.2-45.029 45.029 0 24.829 20.2 45.029 45.029 45.029s45.029-20.2 45.029-45.029c-.001-24.829-20.201-45.029-45.029-45.029zm0 64.914c-10.966 0-19.887-8.922-19.887-19.887 0-10.966 8.922-19.887 19.887-19.887 10.966 0 19.887 8.922 19.887 19.887 0 10.967-8.922 19.887-19.887 19.887zM383.716 165.755H203.567c-6.943 0-12.571 5.628-12.571 12.571s5.629 12.571 12.571 12.571h180.149c6.943 0 12.571-5.628 12.571-12.571 0-6.944-5.628-12.571-12.571-12.571zM373.911 231.035H213.373c-6.943 0-12.571 5.628-12.571 12.571s5.628 12.571 12.571 12.571H373.91c6.943 0 12.571-5.628 12.571-12.571 0-6.942-5.628-12.571-12.57-12.571z"/><path d="M506.341 109.744a25.04 25.04 0 0 0-19.489-9.258H95.278L87.37 62.097a25.173 25.173 0 0 0-14.614-17.989l-55.177-23.95c-6.37-2.767-13.773.156-16.536 6.524-2.766 6.37.157 13.774 6.524 16.537L62.745 67.17l60.826 295.261c2.396 11.628 12.752 20.068 24.625 20.068h301.166c6.943 0 12.571-5.628 12.571-12.571s-5.628-12.571-12.571-12.571H148.197l-7.399-35.916H451.69c11.872 0 22.229-8.44 24.624-20.068l35.163-170.675a25.043 25.043 0 0 0-5.136-20.954zM451.69 296.301H135.619l-35.161-170.674 386.393.001-35.161 170.673z"/></symbol><symbol id="icon-smartphone" viewBox="0 0 60 60"><g><path d="M42.595 0h-25.19A4.411 4.411 0 0 0 13 4.405v51.189A4.411 4.411 0 0 0 17.405 60h25.189A4.411 4.411 0 0 0 47 55.595V4.405A4.411 4.411 0 0 0 42.595 0zM15 8h30v38H15V8zm2.405-6h25.189A2.408 2.408 0 0 1 45 4.405V6H15V4.405A2.408 2.408 0 0 1 17.405 2zm25.19 56h-25.19A2.408 2.408 0 0 1 15 55.595V48h30v7.595A2.408 2.408 0 0 1 42.595 58z"/><path d="M30 49c-2.206 0-4 1.794-4 4s1.794 4 4 4 4-1.794 4-4-1.794-4-4-4zm0 6c-1.103 0-2-.897-2-2s.897-2 2-2 2 .897 2 2-.897 2-2 2zM26 5h4a1 1 0 1 0 0-2h-4a1 1 0 1 0 0 2zM33 5h1a1 1 0 1 0 0-2h-1a1 1 0 1 0 0 2zM56.612 4.569a.999.999 0 1 0-1.414 1.414c3.736 3.736 3.736 9.815 0 13.552a.999.999 0 1 0 1.414 1.414c4.516-4.515 4.516-11.864 0-16.38z"/><path d="M52.401 6.845a.999.999 0 1 0-1.414 1.414c1.237 1.237 1.918 2.885 1.918 4.639s-.681 3.401-1.918 4.638a.999.999 0 1 0 1.414 1.414c1.615-1.614 2.504-3.764 2.504-6.052s-.888-4.439-2.504-6.053zM4.802 5.983a.999.999 0 1 0-1.414-1.414c-4.516 4.516-4.516 11.864 0 16.38a.997.997 0 0 0 1.414 0 .999.999 0 0 0 0-1.414c-3.737-3.736-3.737-9.815 0-13.552z"/><path d="M9.013 6.569a.999.999 0 0 0-1.414 0c-1.615 1.614-2.504 3.764-2.504 6.052s.889 4.438 2.504 6.053a.997.997 0 0 0 1.414 0 .999.999 0 0 0 0-1.414c-1.237-1.237-1.918-2.885-1.918-4.639s.68-3.401 1.918-4.638a1 1 0 0 0 0-1.414z"/></g></symbol><symbol id="icon-twitter" viewBox="0 0 612 612"><path d="M612 116.258a250.714 250.714 0 0 1-72.088 19.772c25.929-15.527 45.777-40.155 55.184-69.411-24.322 14.379-51.169 24.82-79.775 30.48-22.907-24.437-55.49-39.658-91.63-39.658-69.334 0-125.551 56.217-125.551 125.513 0 9.828 1.109 19.427 3.251 28.606-104.326-5.24-196.835-55.223-258.75-131.174-10.823 18.51-16.98 40.078-16.98 63.101 0 43.559 22.181 81.993 55.835 104.479a125.556 125.556 0 0 1-56.867-15.756v1.568c0 60.806 43.291 111.554 100.693 123.104-10.517 2.83-21.607 4.398-33.08 4.398-8.107 0-15.947-.803-23.634-2.333 15.985 49.907 62.336 86.199 117.253 87.194-42.947 33.654-97.099 53.655-155.916 53.655-10.134 0-20.116-.612-29.944-1.721 55.567 35.681 121.536 56.485 192.438 56.485 230.948 0 357.188-191.291 357.188-357.188l-.421-16.253c24.666-17.593 46.005-39.697 62.794-64.861z"/></symbol><symbol id="icon-up-arrow" viewBox="0 0 401.949 401.949"><path d="M328.508 173.212L211.214 4.948c-5.633-6.598-14.846-6.598-20.479 0L73.445 173.209c-5.631 6.599-3.146 11.996 5.529 11.996h49.068c8.672 0 15.77 7.097 15.77 15.771l.077 51.518v133.428l-.021.292c.003 8.676 7.321 15.734 15.991 15.736l82.789-.002c8.674 0 15.771-7.096 15.771-15.766l-.279-185.207c0-8.674 7.094-15.771 15.769-15.771h49.066c8.672.001 11.161-5.396 5.533-11.992z"/></symbol></svg>